<?xml version="1.0" encoding="UTF-8" standalone="no"?><!DOCTYPE svg PUBLIC "-//W3C//DTD SVG 1.1//EN" "http://www.w3.org/Graphics/SVG/1.1/DTD/svg11.dtd"><svg width="100%" height="100%" viewBox="0 0 708 516" version="1.1" xmlns="http://www.w3.org/2000/svg" xmlns:xlink="http://www.w3.org/1999/xlink" xml:space="preserve" xmlns:serif="http://www.serif.com/" style="fill-rule:evenodd;clip-rule:evenodd;stroke-linejoin:round;stroke-miterlimit:1.41421;"><g><path d="M170.937,0.012l-0.022,323.204l54.948,0.004l0.022,-323.205l-54.948,-0.003Z" style="fill:#1f2b3b;"/><path d="M0.018,255.372c0.002,-37.438 31.899,-67.831 71.185,-67.828c39.286,0.002 71.18,30.399 71.177,67.837c-0.003,37.438 -31.9,67.831 -71.186,67.829c-39.286,-0.003 -71.179,-30.4 -71.176,-67.838Z" style="fill:#1f2b3b;"/><path d="M254.411,255.389c0.002,-37.438 31.9,-67.831 71.186,-67.828c39.286,0.002 71.179,30.399 71.176,67.837c-0.002,37.439 -31.9,67.831 -71.186,67.829c-39.286,-0.003 -71.179,-30.4 -71.176,-67.838Z" style="fill:#1f2b3b;"/><path d="M254.423,67.851c0.003,-37.438 31.9,-67.83 71.186,-67.828c39.286,0.003 71.179,30.4 71.177,67.838c-0.003,37.438 -31.9,67.831 -71.186,67.828c-39.286,-0.002 -71.179,-30.4 -71.177,-67.838Z" style="fill:#1f2b3b;"/><g><path d="M418.044,496.836c0,-1.79 0.304,-3.436 0.912,-4.939c0.608,-1.503 1.452,-2.803 2.533,-3.9c1.081,-1.098 2.381,-1.951 3.901,-2.558c1.52,-0.608 3.174,-0.912 4.964,-0.912c1.79,0 3.437,0.304 4.94,0.912c1.502,0.608 2.802,1.461 3.9,2.559c1.098,1.097 1.95,2.398 2.558,3.901c0.608,1.503 0.912,3.149 0.911,4.939c0,1.79 -0.304,3.436 -0.912,4.939c-0.608,1.503 -1.461,2.803 -2.558,3.9c-1.098,1.098 -2.398,1.951 -3.901,2.558c-1.503,0.608 -3.149,0.912 -4.939,0.912c-1.79,0 -3.445,-0.304 -4.965,-0.912c-1.519,-0.608 -2.82,-1.461 -3.9,-2.559c-1.081,-1.097 -1.925,-2.398 -2.533,-3.901c-0.608,-1.502 -0.911,-3.149 -0.911,-4.939Zm3.039,0c0,1.318 0.211,2.559 0.633,3.724c0.422,1.165 1.038,2.178 1.849,3.039c0.81,0.862 1.79,1.546 2.938,2.052c1.148,0.507 2.432,0.76 3.85,0.76c1.418,0 2.702,-0.253 3.85,-0.759c1.148,-0.507 2.128,-1.191 2.938,-2.052c0.811,-0.861 1.427,-1.874 1.85,-3.039c0.422,-1.165 0.633,-2.406 0.633,-3.723c0,-1.317 -0.211,-2.559 -0.633,-3.724c-0.422,-1.165 -1.038,-2.178 -1.849,-3.039c-0.81,-0.862 -1.79,-1.546 -2.938,-2.052c-1.148,-0.507 -2.431,-0.76 -3.85,-0.76c-1.418,0 -2.702,0.253 -3.85,0.759c-1.148,0.507 -2.128,1.191 -2.938,2.052c-0.811,0.861 -1.427,1.874 -1.849,3.039c-0.423,1.165 -0.634,2.406 -0.634,3.723Z" style="fill:#1f2b3b;fill-rule:nonzero;"/><path d="M449.452,491.722c0,-0.439 -0.017,-0.971 -0.051,-1.596c-0.033,-0.625 -0.059,-1.258 -0.075,-1.9c-0.017,-0.641 -0.043,-1.241 -0.076,-1.798c-0.034,-0.557 -0.051,-0.988 -0.051,-1.292l3.04,0.001c0.033,0.878 0.059,1.722 0.075,2.532c0.017,0.811 0.059,1.334 0.127,1.571l0.152,0c0.608,-1.283 1.621,-2.389 3.04,-3.318c1.418,-0.929 3.073,-1.393 4.964,-1.393c1.824,0 3.31,0.287 4.458,0.862c1.148,0.574 2.052,1.325 2.71,2.254c0.659,0.929 1.114,2.001 1.368,3.217c0.253,1.216 0.379,2.465 0.379,3.749l-0.001,13.931l-3.039,-0.001l0.001,-13.779c0,-0.945 -0.084,-1.865 -0.253,-2.76c-0.169,-0.895 -0.464,-1.697 -0.887,-2.407c-0.422,-0.709 -1.013,-1.275 -1.772,-1.697c-0.76,-0.422 -1.748,-0.633 -2.964,-0.633c-1.114,0 -2.17,0.194 -3.166,0.582c-0.996,0.388 -1.858,0.979 -2.584,1.773c-0.726,0.794 -1.3,1.79 -1.722,2.989c-0.423,1.199 -0.634,2.608 -0.634,4.23l-0.001,11.702l-3.039,-0.001l0.001,-16.818Z" style="fill:#1f2b3b;fill-rule:nonzero;"/><path d="M478.126,470.245l3.039,0l-0.002,38.297l-3.04,0l0.003,-38.297Z" style="fill:#1f2b3b;fill-rule:nonzero;"/><path d="M490.283,485.139l3.039,0l-0.001,23.404l-3.04,0l0.002,-23.404Zm-0.759,-9.27c0,-0.642 0.219,-1.182 0.658,-1.621c0.439,-0.439 0.98,-0.659 1.621,-0.659c0.642,0 1.182,0.22 1.621,0.659c0.439,0.439 0.659,0.979 0.659,1.621c0,0.642 -0.22,1.182 -0.659,1.621c-0.439,0.439 -0.979,0.658 -1.621,0.658c-0.642,0 -1.182,-0.219 -1.621,-0.658c-0.439,-0.439 -0.658,-0.98 -0.658,-1.621Z" style="fill:#1f2b3b;fill-rule:nonzero;"/><path d="M501.934,491.725c0,-0.439 -0.017,-0.971 -0.051,-1.595c-0.034,-0.625 -0.059,-1.258 -0.076,-1.9c-0.017,-0.642 -0.042,-1.241 -0.076,-1.798c-0.033,-0.558 -0.05,-0.988 -0.05,-1.292l3.039,0c0.034,0.878 0.059,1.722 0.076,2.533c0.017,0.81 0.059,1.334 0.127,1.57l0.152,0c0.608,-1.283 1.621,-2.389 3.039,-3.318c1.419,-0.928 3.074,-1.392 4.965,-1.392c1.824,0 3.31,0.287 4.458,0.861c1.148,0.574 2.051,1.326 2.71,2.255c0.658,0.928 1.114,2.001 1.367,3.217c0.254,1.215 0.38,2.465 0.38,3.748l-0.001,13.931l-3.039,0l0.001,-13.779c0,-0.946 -0.085,-1.866 -0.253,-2.761c-0.169,-0.895 -0.465,-1.697 -0.887,-2.406c-0.422,-0.709 -1.013,-1.275 -1.773,-1.697c-0.76,-0.423 -1.747,-0.634 -2.963,-0.634c-1.115,0 -2.17,0.194 -3.166,0.583c-0.997,0.388 -1.858,0.979 -2.584,1.772c-0.726,0.794 -1.3,1.79 -1.723,2.989c-0.422,1.199 -0.633,2.609 -0.633,4.23l-0.001,11.702l-3.039,0l0.001,-16.819Z" style="fill:#1f2b3b;fill-rule:nonzero;"/><path d="M550.767,504.14c-1.182,1.79 -2.643,3.073 -4.382,3.85c-1.739,0.776 -3.656,1.165 -5.75,1.164c-1.79,0 -3.411,-0.304 -4.863,-0.912c-1.452,-0.608 -2.701,-1.461 -3.748,-2.558c-1.047,-1.098 -1.849,-2.398 -2.406,-3.901c-0.557,-1.503 -0.836,-3.166 -0.836,-4.99c0,-1.756 0.287,-3.377 0.862,-4.863c0.574,-1.486 1.384,-2.778 2.432,-3.875c1.047,-1.098 2.279,-1.959 3.698,-2.584c1.418,-0.624 2.989,-0.937 4.711,-0.936c1.79,0 3.369,0.312 4.736,0.937c1.368,0.625 2.516,1.452 3.445,2.483c0.929,1.03 1.629,2.203 2.102,3.52c0.473,1.318 0.709,2.652 0.709,4.002l0,2.128l-19.655,-0.001c0,0.641 0.126,1.46 0.379,2.457c0.254,0.996 0.718,1.967 1.393,2.913c0.676,0.945 1.579,1.756 2.71,2.431c1.132,0.676 2.592,1.014 4.382,1.014c1.554,0 3.057,-0.371 4.509,-1.114c1.452,-0.743 2.567,-1.756 3.343,-3.04l2.229,1.875Zm-2.329,-9.271c0,-1.047 -0.211,-2.026 -0.633,-2.938c-0.423,-0.912 -0.997,-1.714 -1.723,-2.406c-0.726,-0.693 -1.587,-1.241 -2.583,-1.647c-0.996,-0.405 -2.052,-0.608 -3.166,-0.608c-1.655,0 -3.031,0.338 -4.129,1.013c-1.098,0.675 -1.967,1.452 -2.609,2.33c-0.642,0.878 -1.098,1.731 -1.368,2.558c-0.27,0.828 -0.405,1.393 -0.405,1.697l16.616,0.001Z" style="fill:#1f2b3b;fill-rule:nonzero;"/><path d="M571.437,491.73c0,-0.439 -0.017,-0.971 -0.051,-1.596c-0.034,-0.624 -0.059,-1.258 -0.076,-1.899c-0.017,-0.642 -0.042,-1.241 -0.076,-1.799c-0.033,-0.557 -0.05,-0.988 -0.05,-1.291l3.039,0c0.034,0.878 0.059,1.722 0.076,2.533c0.017,0.81 0.059,1.334 0.127,1.57l0.152,0c0.608,-1.283 1.621,-2.389 3.039,-3.318c1.419,-0.928 3.074,-1.393 4.965,-1.393c1.553,0.001 2.972,0.397 4.255,1.191c1.283,0.794 2.212,2.086 2.786,3.876c0.743,-1.756 1.849,-3.04 3.318,-3.85c1.469,-0.811 3.015,-1.216 4.636,-1.216c1.823,0.001 3.309,0.288 4.457,0.862c1.149,0.574 2.052,1.326 2.71,2.254c0.659,0.929 1.115,2.001 1.368,3.217c0.253,1.216 0.38,2.466 0.38,3.749l-0.001,13.931l-3.04,0l0.001,-13.779c0,-0.946 -0.084,-1.866 -0.253,-2.761c-0.169,-0.895 -0.464,-1.697 -0.886,-2.406c-0.422,-0.71 -1.013,-1.275 -1.773,-1.698c-0.76,-0.422 -1.748,-0.633 -2.964,-0.633c-1.418,0 -2.583,0.262 -3.495,0.785c-0.912,0.523 -1.63,1.19 -2.153,2.001c-0.524,0.81 -0.895,1.688 -1.115,2.634c-0.219,0.946 -0.329,1.84 -0.329,2.685l-0.001,13.171l-3.04,0l0.001,-14.083c0,-2.162 -0.396,-3.901 -1.19,-5.218c-0.793,-1.317 -2.018,-1.976 -3.672,-1.976c-1.115,0 -2.17,0.194 -3.167,0.582c-0.996,0.389 -1.857,0.98 -2.583,1.773c-0.726,0.794 -1.301,1.79 -1.723,2.989c-0.422,1.199 -0.633,2.609 -0.633,4.23l-0.001,11.702l-3.04,0l0.002,-16.819Z" style="fill:#1f2b3b;fill-rule:nonzero;"/><path d="M635.265,504.146c-1.182,1.789 -2.643,3.073 -4.382,3.849c-1.74,0.777 -3.656,1.165 -5.75,1.165c-1.79,0 -3.411,-0.304 -4.863,-0.912c-1.452,-0.608 -2.702,-1.461 -3.749,-2.559c-1.047,-1.097 -1.849,-2.398 -2.406,-3.9c-0.557,-1.503 -0.835,-3.167 -0.835,-4.99c0,-1.756 0.287,-3.377 0.861,-4.863c0.574,-1.486 1.385,-2.778 2.432,-3.876c1.047,-1.097 2.28,-1.958 3.698,-2.583c1.419,-0.625 2.989,-0.937 4.712,-0.937c1.789,0 3.368,0.313 4.736,0.938c1.368,0.625 2.516,1.452 3.445,2.482c0.928,1.03 1.629,2.204 2.102,3.521c0.472,1.317 0.709,2.651 0.709,4.002l-0.001,2.128l-19.655,-0.002c0,0.642 0.127,1.461 0.38,2.457c0.253,0.997 0.717,1.968 1.393,2.913c0.675,0.946 1.579,1.757 2.71,2.432c1.131,0.676 2.592,1.013 4.382,1.014c1.553,0 3.056,-0.372 4.508,-1.115c1.453,-0.743 2.567,-1.756 3.344,-3.039l2.229,1.875Zm-2.33,-9.271c0,-1.047 -0.211,-2.026 -0.633,-2.938c-0.422,-0.912 -0.996,-1.714 -1.722,-2.407c-0.726,-0.692 -1.587,-1.241 -2.583,-1.646c-0.997,-0.405 -2.052,-0.608 -3.167,-0.608c-1.654,0 -3.031,0.337 -4.128,1.013c-1.098,0.675 -1.968,1.452 -2.609,2.33c-0.642,0.878 -1.098,1.731 -1.368,2.558c-0.27,0.827 -0.406,1.393 -0.406,1.697l16.616,0.001Z" style="fill:#1f2b3b;fill-rule:nonzero;"/><path d="M663.228,504.451l-0.101,0c-0.473,0.811 -1.064,1.512 -1.773,2.103c-0.71,0.591 -1.478,1.08 -2.305,1.469c-0.828,0.388 -1.698,0.675 -2.609,0.861c-0.912,0.185 -1.807,0.278 -2.685,0.278c-1.79,0 -3.445,-0.304 -4.965,-0.912c-1.519,-0.608 -2.82,-1.461 -3.9,-2.559c-1.081,-1.097 -1.925,-2.398 -2.533,-3.901c-0.608,-1.502 -0.912,-3.149 -0.911,-4.939c0,-1.79 0.304,-3.436 0.912,-4.939c0.608,-1.503 1.452,-2.803 2.533,-3.9c1.081,-1.098 2.381,-1.95 3.901,-2.558c1.52,-0.608 3.174,-0.912 4.964,-0.912c0.878,0 1.773,0.093 2.685,0.279c0.912,0.186 1.782,0.473 2.609,0.861c0.827,0.389 1.596,0.879 2.305,1.47c0.709,0.591 1.3,1.291 1.773,2.102l0.101,0l0.001,-18.997l3.04,0l-0.003,38.298l-3.039,0l0,-4.104Zm0.305,-7.598c0,-1.317 -0.254,-2.558 -0.76,-3.724c-0.507,-1.165 -1.199,-2.178 -2.077,-3.039c-0.878,-0.862 -1.908,-1.545 -3.09,-2.052c-1.182,-0.507 -2.465,-0.76 -3.85,-0.76c-1.418,0 -2.702,0.253 -3.85,0.759c-1.148,0.507 -2.128,1.191 -2.938,2.052c-0.811,0.861 -1.427,1.874 -1.849,3.039c-0.423,1.165 -0.634,2.406 -0.634,3.723c0,1.318 0.211,2.559 0.633,3.724c0.422,1.165 1.038,2.178 1.849,3.039c0.81,0.862 1.79,1.546 2.938,2.052c1.148,0.507 2.431,0.76 3.85,0.76c1.385,0.001 2.668,-0.253 3.85,-0.759c1.182,-0.507 2.212,-1.19 3.09,-2.052c0.878,-0.861 1.571,-1.874 2.077,-3.039c0.507,-1.165 0.76,-2.406 0.761,-3.723Z" style="fill:#1f2b3b;fill-rule:nonzero;"/><path d="M674.222,485.151l3.04,0.001l-0.002,23.404l-3.039,-0.001l0.001,-23.404Zm-0.759,-9.27c0,-0.642 0.22,-1.182 0.659,-1.621c0.439,-0.439 0.979,-0.658 1.621,-0.658c0.641,0 1.182,0.219 1.621,0.658c0.439,0.439 0.658,0.98 0.658,1.621c0,0.642 -0.219,1.182 -0.659,1.621c-0.439,0.439 -0.979,0.659 -1.621,0.659c-0.641,0 -1.182,-0.22 -1.621,-0.659c-0.439,-0.439 -0.658,-0.979 -0.658,-1.621Z" style="fill:#1f2b3b;fill-rule:nonzero;"/><path d="M704.059,498.73c0,1.148 0.008,2.178 0.025,3.09c0.017,0.912 0.042,1.756 0.076,2.533c0.033,0.777 0.076,1.503 0.126,2.178c0.051,0.676 0.127,1.351 0.228,2.027l-2.837,-0.001c-0.202,-1.148 -0.304,-2.414 -0.303,-3.799l-0.102,0c-0.878,1.52 -1.967,2.634 -3.267,3.343c-1.301,0.709 -2.947,1.064 -4.94,1.064c-1.013,0 -2.009,-0.127 -2.988,-0.38c-0.98,-0.254 -1.858,-0.659 -2.635,-1.216c-0.776,-0.558 -1.41,-1.275 -1.899,-2.154c-0.49,-0.878 -0.735,-1.941 -0.734,-3.191c0,-1.79 0.456,-3.208 1.368,-4.255c0.911,-1.047 2.034,-1.832 3.369,-2.356c1.334,-0.523 2.752,-0.861 4.255,-1.012c1.503,-0.152 2.828,-0.228 3.977,-0.228l3.546,0l0,-1.418c0,-2.027 -0.625,-3.479 -1.874,-4.357c-1.25,-0.878 -2.82,-1.317 -4.711,-1.317c-2.702,-0.001 -5.083,0.877 -7.143,2.633l-1.773,-2.077c1.114,-1.08 2.499,-1.899 4.154,-2.456c1.655,-0.558 3.242,-0.836 4.762,-0.836c2.837,0 5.099,0.667 6.788,2.001c1.688,1.335 2.532,3.488 2.532,6.459l0,5.725Zm-6.079,-1.926c-1.283,0 -2.524,0.085 -3.723,0.253c-1.199,0.169 -2.28,0.456 -3.243,0.861c-0.962,0.406 -1.73,0.946 -2.305,1.621c-0.574,0.676 -0.861,1.52 -0.861,2.533c0,0.709 0.16,1.343 0.481,1.9c0.321,0.557 0.735,1.013 1.241,1.368c0.507,0.354 1.072,0.625 1.697,0.81c0.625,0.186 1.258,0.279 1.9,0.279c1.621,0 2.955,-0.236 4.002,-0.709c1.047,-0.473 1.883,-1.089 2.508,-1.849c0.624,-0.759 1.055,-1.621 1.292,-2.583c0.236,-0.963 0.354,-1.934 0.354,-2.913l0,-1.57l-3.343,-0.001Z" style="fill:#1f2b3b;fill-rule:nonzero;"/></g><g><path d="M57.044,452.757l0.548,-104.652l-8.111,-0.043l-0.18,34.386l0.325,6.73l-0.361,-0.002c-1.598,-4.494 -5.913,-6.759 -12.942,-6.796l-8.652,-0.045c-8.832,-0.046 -16.255,6.044 -16.293,13.37l-0.227,43.356c-0.038,7.326 7.32,13.494 16.152,13.54l8.652,0.046c6.849,0.035 11.187,-2.184 13.013,-6.66l0.36,0.002l-0.035,6.727l7.751,0.041Zm-8.044,-12.9c-0.02,3.738 -3.64,6.709 -8.146,6.685l-13.519,-0.07c-4.326,-0.023 -8.096,-3.033 -8.076,-6.77l0.233,-44.552c0.02,-3.738 3.821,-6.708 8.147,-6.686l13.518,0.071c4.507,0.024 8.096,3.033 8.076,6.77l-0.233,44.552Z" style="fill:#1f2b3b;fill-rule:nonzero;"/><path d="M131.409,422.498l0.137,-26.164c0.038,-7.325 -6.959,-13.492 -16.152,-13.54l-13.519,-0.071c-8.832,-0.046 -16.254,6.045 -16.293,13.371l-0.227,43.356c-0.038,7.325 7.32,13.494 16.152,13.54l23.793,0.125l0.032,-6.13l-23.793,-0.125c-4.326,-0.022 -8.095,-3.032 -8.076,-6.77l0.094,-17.791l37.852,0.199Zm-8.079,-6.173l-29.741,-0.155l0.108,-20.632c0.019,-3.737 3.82,-6.708 8.146,-6.685l13.519,0.071c4.506,0.023 8.095,3.032 8.076,6.77l-0.108,20.631Z" style="fill:#1f2b3b;fill-rule:nonzero;"/><path d="M189.483,453.451c9.193,0.048 16.255,-6.045 16.293,-13.371l0.043,-8.222c0.026,-4.934 -3.738,-8.99 -9.673,-11.563l-23.023,-9.39c-3.418,-1.364 -5.029,-3.465 -5.014,-6.306l0.045,-8.671c0.02,-3.737 3.82,-6.708 8.146,-6.685l13.519,0.071c4.506,0.023 8.096,3.032 8.076,6.77l-0.04,7.625l8.111,0.042l0.037,-7.027c0.038,-7.325 -6.959,-13.492 -16.152,-13.54l-13.519,-0.071c-8.832,-0.046 -16.254,6.045 -16.292,13.371l-0.044,8.372c-0.026,4.933 3.738,8.99 9.673,11.563l23.023,9.39c3.418,1.363 5.029,3.465 5.014,6.305l-0.044,8.522c-0.02,3.737 -3.64,6.709 -8.147,6.685l-13.518,-0.071c-4.326,-0.022 -8.096,-3.032 -8.076,-6.77l0.04,-7.774l-8.111,-0.043l-0.037,7.177c-0.039,7.325 7.319,13.494 16.152,13.54l13.518,0.071Z" style="fill:#1f2b3b;fill-rule:nonzero;"/><path d="M232.856,366.067c-0.014,2.541 2.858,4.948 5.922,4.964c3.425,0.018 5.961,-2.361 5.974,-4.902c0.015,-2.841 -2.497,-4.947 -5.922,-4.965c-3.064,-0.016 -5.959,2.062 -5.974,4.903Zm9.274,87.659l0.368,-70.266l-8.111,-0.043l-0.368,70.267l8.111,0.042Z" style="fill:#1f2b3b;fill-rule:nonzero;"/><path d="M300.248,476.457c8.832,0.046 16.255,-6.194 16.293,-13.37l0.415,-79.237l-7.751,-0.041l-0.035,6.728l-0.361,-0.002c-1.599,-4.494 -5.913,-6.759 -12.942,-6.796l-8.652,-0.045c-8.833,-0.046 -16.255,6.045 -16.293,13.37l-0.227,43.356c-0.039,7.326 7.319,13.494 16.152,13.541l8.652,0.045c6.849,0.036 11.187,-2.184 13.013,-6.66l0.36,0.002l-0.396,6.726l-0.05,9.568c-0.019,3.738 -3.64,6.709 -8.146,6.685l-19.647,-0.103l-0.032,6.13l19.647,0.103Zm0.453,-86.562c4.506,0.023 8.096,3.032 8.076,6.77l-0.233,44.552c-0.02,3.737 -3.64,6.708 -8.147,6.685l-13.518,-0.071c-4.326,-0.023 -8.096,-3.033 -8.076,-6.77l0.233,-44.552c0.02,-3.738 3.821,-6.708 8.146,-6.685l13.519,0.071Z" style="fill:#1f2b3b;fill-rule:nonzero;"/><path d="M391.045,454.506l0.297,-56.811c0.04,-7.625 -6.959,-13.492 -16.151,-13.54l-8.652,-0.045c-6.85,-0.036 -11.188,2.184 -13.014,6.659l-0.36,-0.002l0.035,-6.727l-7.751,-0.041l-0.368,70.267l8.112,0.042l0.3,-57.409c0.02,-3.738 3.821,-6.708 8.147,-6.685l13.518,0.071c4.507,0.023 8.096,3.032 8.076,6.77l-0.3,57.409l8.111,0.042Z" style="fill:#1f2b3b;fill-rule:nonzero;"/><path d="M433.418,454.728l0.034,-6.578l0.361,0.002c1.958,4.645 6.453,6.911 13.843,6.95l6.85,0.036c10.274,0.054 17.154,-5.741 17.198,-14.113l0.222,-42.459c0.046,-8.821 -6.415,-14.237 -17.049,-14.293l-6.85,-0.036c-7.39,-0.038 -11.908,2.181 -13.915,6.805l-0.36,-0.002l0.394,-6.576l0.181,-34.386l-16.223,-0.085l-0.548,104.652l15.862,0.083Zm22.057,-12.592c-0.002,0.448 -0.365,0.745 -0.905,0.742l-19.828,-0.103c-0.54,-0.003 -0.899,-0.304 -0.897,-0.753l0.235,-44.851c0.002,-0.448 0.364,-0.745 0.905,-0.742l19.827,0.104c0.541,0.002 0.9,0.303 0.898,0.752l-0.235,44.851Z" style="fill:#1f2b3b;fill-rule:nonzero;"/><path d="M549.152,455.334l0.294,-56.063c0.046,-8.821 -6.415,-14.237 -17.049,-14.293l-30.823,-0.161l-0.063,11.96l30.823,0.162c0.541,0.002 0.9,0.303 0.897,0.752l-0.068,13.007l0.326,6.58l-0.36,-0.002c-1.242,-3.745 -4.837,-5.707 -11.506,-5.742l-9.193,-0.048c-10.635,-0.056 -17.15,4.993 -17.198,14.113l-0.082,15.548c-0.043,8.373 7.316,14.242 17.41,14.295l8.832,0.046c4.867,0.026 10.286,-2.189 11.566,-5.621l0.361,0.002l-0.029,5.382l15.862,0.083Zm-16.959,-31.485c0.541,0.003 0.9,0.304 0.897,0.752l-0.094,17.941c-0.002,0.448 -0.364,0.745 -0.905,0.742l-19.827,-0.103c-0.541,-0.003 -0.9,-0.304 -0.897,-0.753l0.094,-17.94c0.002,-0.448 0.364,-0.746 0.905,-0.743l19.827,0.104Z" style="fill:#1f2b3b;fill-rule:nonzero;"/><path d="M610.45,455.954c10.635,0.056 17.153,-5.591 17.198,-14.113l0.051,-9.717c0.03,-5.681 -4.093,-10.188 -12.547,-13.522l-24.284,-9.695c-0.539,-0.302 -0.897,-0.753 -0.894,-1.351l0.05,-9.568c0.003,-0.448 0.365,-0.745 0.905,-0.743l19.828,0.104c0.541,0.003 0.899,0.304 0.897,0.752l-0.047,8.971l16.223,0.085l0.04,-7.775c0.046,-8.82 -6.414,-14.236 -17.049,-14.292l-19.467,-0.102c-10.635,-0.056 -17.514,5.59 -17.558,14.111l-0.043,8.073c-0.029,5.682 4.093,10.188 12.547,13.522l24.284,9.695c0.54,0.153 0.898,0.603 0.894,1.351l-0.059,11.212c-0.002,0.449 -0.364,0.746 -0.905,0.743l-19.827,-0.104c-0.541,-0.002 -0.9,-0.303 -0.898,-0.752l0.055,-10.465l-16.222,-0.085l-0.049,9.269c-0.044,8.522 6.775,14.239 17.41,14.295l19.467,0.101Z" style="fill:#1f2b3b;fill-rule:nonzero;"/><path d="M706.147,427.75l0.15,-28.704c0.041,-7.774 -6.779,-13.491 -17.053,-13.545l-19.828,-0.104c-10.094,-0.053 -17.153,5.591 -17.198,14.113l-0.22,42.16c-0.044,8.372 6.955,14.24 17.049,14.292l31.003,0.163l0.062,-11.961l-31.003,-0.162c-0.54,-0.003 -0.899,-0.304 -0.897,-0.752l0.082,-15.698l37.853,0.198Zm-16.16,-12.045l-21.63,-0.113l0.09,-17.193c0.002,-0.449 0.364,-0.746 0.905,-0.743l19.828,0.104c0.54,0.003 0.899,0.304 0.897,0.752l-0.09,17.193Z" style="fill:#1f2b3b;fill-rule:nonzero;"/></g><path d="M429.703,499.786c5.484,1.767 10.552,3.403 16.002,5.157c-1.901,1.037 -3.499,1.909 -5.09,2.778c1.737,1.829 3.399,3.583 5.039,5.308c-0.877,0.86 -1.712,1.678 -2.622,2.567c-1.616,-1.607 -3.332,-3.31 -5.211,-5.178c-0.948,1.792 -1.813,3.428 -2.833,5.358c-1.787,-5.412 -3.469,-10.502 -5.285,-15.99" style="fill:#1f2b3b;fill-rule:nonzero;"/></g></svg>