<svg width="746" height="288" viewBox="0 0 746 288" version="1.1" xmlns="http://www.w3.org/2000/svg" xmlns:xlink="http://www.w3.org/1999/xlink"><title>Logo iFresh-FC</title><defs><path d="M2.454 183.335H32.05V45.612H2.454v137.723zM17.25.935c9.113 0 16.502 7.399 16.502 16.506 0 9.104-7.389 16.502-16.502 16.502-9.097 0-16.509-7.398-16.509-16.502C.741 8.334 8.153.935 17.251.935z" id="path-1"/><path id="path-3" d="M22.252 103.515H.905v-31.3h21.347V.794H159.44v31.304H55.27v40.119h72.577v31.3H55.27v75.975H22.252z"/><path d="M.847 4.373h27.895v15.082h.569C34.149 8.075 44.395.675 56.35.675c6.547 0 12.235 1.705 16.225 4.266l-10.53 29.311c-2.861-2.277-8.26-3.985-11.102-3.985-10.814 0-20.492 8.25-20.492 20.775v91.054H.847V4.373z" id="path-5"/><path d="M113.35 59.01c-6.264-21.057-21.91-32.157-40.7-32.157-18.778 0-34.143 11.668-38.982 32.155h79.68zm27.323 53.203c-16.51 20.784-39.278 33.297-64.04 33.588-48.094 0-75.99-36.14-75.99-72.562C.644 36.813 28.54.679 76.634.679c28.752 0 71.436 23.614 71.436 77.394v5.41H33.67c1.702 21.055 21.344 36.133 42.112 36.133 15.937 0 29.604-7.687 39.842-21.34l25.05 13.937z" id="path-7"/><path d="M20.656 101.125c10.53 11.384 27.888 20.203 43.257 20.203 17.077 0 27.323-9.675 27.323-17.358 0-9.103-7.12-13.945-17.934-15.934l-16.786-3.13C17.815 77.793 6.99 65.273 6.99 45.637 6.99 22.304 26.628.68 61.067.68c19.067 0 35.867 5.686 54.65 19.063L98.916 40.514C84.412 28.278 71.601 25.15 61.923 25.15c-12.81 0-25.33 6.258-25.33 17.358 0 8.251 6.544 12.52 17.926 14.51l29.893 5.694c24.473 4.553 36.42 16.218 36.42 36.705 0 20.2-16.509 46.39-58.344 46.39-23.337 0-43.249-8.26-62.046-24.193l20.214-20.488z" id="path-9"/><path d="M.218.793h29.604v58.334h.569C38.643 46.326 53.72 38.07 72.506 38.07c29.028 0 53.51 24.185 53.51 58.33v83.09H96.419v-76.54c0-25.045-13.095-35.29-32.734-35.29-19.07 0-33.863 12.237-33.863 34.718v77.112H.218V.793z" id="path-11"/></defs><g id="Page-1" stroke="none" stroke-width="1" fill="none" fill-rule="evenodd"><g id="Logo-iFresh-FC"><g id="Group-3" transform="translate(1)"><mask id="mask-2" fill="#fff"><use xlink:href="#path-1"/></mask><path id="Fill-1" fill="#545553" mask="url(#mask-2)" d="M.691 183.757h33.18V.843H.69z"/></g><g id="Group-6" transform="translate(59.603 3.84)"><mask id="mask-4" fill="#fff"><use xlink:href="#path-3"/></mask><path id="Fill-4" fill="#8ABD3F" mask="url(#mask-4)" d="M.613 179.918h158.984V.689H.613z"/></g><g id="Group-9" transform="translate(232.412 41.235)"><mask id="mask-6" fill="#fff"><use xlink:href="#path-5"/></mask><path id="Fill-7" fill="#8ABD3F" mask="url(#mask-6)" d="M.613 142.522h72.35V.614H.612z"/></g><g id="Group-12" transform="translate(309.216 41.235)"><mask id="mask-8" fill="#fff"><use xlink:href="#path-7"/></mask><path id="Fill-10" fill="#8ABD3F" mask="url(#mask-8)" d="M.306 146.208H148.23V.614H.306z"/></g><g id="Group-15" transform="translate(473.345 41.235)"><mask id="mask-10" fill="#fff"><use xlink:href="#path-9"/></mask><path id="Fill-13" fill="#8ABD3F" mask="url(#mask-10)" d="M.23 146.208h120.736V.614H.23z"/></g><g id="Group-18" transform="translate(618.433 3.84)"><mask id="mask-12" fill="#fff"><use xlink:href="#path-11"/></mask><path id="Fill-16" fill="#8ABD3F" mask="url(#mask-12)" d="M-.158 179.918h126.266V.689H-.158z"/></g><path d="M.401 262.832H6.76c0 1.982.552 3.617 1.658 4.905 1.105 1.287 2.489 1.931 4.152 1.931 1.573 0 2.866-.484 3.88-1.453 1.014-.968 1.52-2.204 1.52-3.708 0-1.322-.358-2.438-1.076-3.35-.718-.911-1.874-1.686-3.47-2.324a57.677 57.677 0 0 0-2.323-.889c-2.666-1.002-4.364-1.8-5.093-2.392-1.345-1.071-2.336-2.285-2.974-3.64-.638-1.356-.957-2.923-.957-4.7 0-3.053 1.065-5.651 3.196-7.793 2.13-2.142 4.734-3.213 7.81-3.213 3.213 0 5.765.94 7.656 2.82 1.892 1.88 2.928 4.517 3.11 7.912h-6.494c-.113-1.39-.57-2.472-1.367-3.247-.797-.774-1.868-1.162-3.213-1.162-1.207 0-2.216.416-3.024 1.248-.81.832-1.214 1.863-1.214 3.093 0 2.096 1.823 3.817 5.469 5.161 1.025.388 1.834.695 2.427.923 2.87 1.162 4.916 2.61 6.135 4.34 1.219 1.733 1.829 4.046 1.829 6.94 0 3.372-1.14 6.175-3.418 8.408-2.28 2.233-5.15 3.35-8.614 3.35-3.486 0-6.3-1.174-8.442-3.521-2.142-2.347-3.316-5.56-3.52-9.639zm36.3-6.665c0 3.76 1.19 6.893 3.571 9.4 2.381 2.506 5.35 3.76 8.904 3.76 3.486 0 6.408-1.26 8.767-3.778 2.358-2.518 3.537-5.668 3.537-9.45 0-3.806-1.179-6.95-3.537-9.434-2.359-2.484-5.304-3.726-8.836-3.726-3.509 0-6.454 1.26-8.835 3.777-2.381 2.518-3.572 5.668-3.572 9.451zm-7.008.068c0-2.666.45-5.155 1.35-7.468a18.97 18.97 0 0 1 3.982-6.238c1.892-2.028 4.022-3.589 6.392-4.682 2.37-1.094 4.83-1.64 7.383-1.64 2.734 0 5.27.489 7.605 1.469 2.335.98 4.449 2.427 6.34 4.34 1.846 1.892 3.264 4.022 4.255 6.392a18.866 18.866 0 0 1 1.487 7.349c0 2.575-.461 5.081-1.384 7.52-.923 2.438-2.216 4.568-3.88 6.391-1.913 2.096-4.061 3.686-6.442 4.768-2.381 1.082-4.916 1.624-7.605 1.624-2.757 0-5.298-.496-7.622-1.487-2.325-.991-4.41-2.455-6.255-4.392-1.755-1.846-3.128-3.994-4.119-6.443-.991-2.45-1.487-4.95-1.487-7.503zM84.552 275h-6.734v-31.719h-4.477v-5.879h4.272v-1.128c0-3.85 1.071-6.75 3.213-8.698 2.142-1.949 5.344-2.923 9.605-2.923v6.255h-.581c-2.006 0-3.441.456-4.307 1.367-.866.912-1.299 2.439-1.299 4.58v.547h6.187v5.88h-5.88V275zm14.765 0v-31.445H94.02v-6.153h5.297v-12.168h6.734v12.168h5.332v6.153h-5.332V275h-6.734zm39.512-25.464L131.14 275h-3.794l-13.023-37.598h7.212l7.725 24.849 7.622-24.849h4.136l7.553 24.849 7.76-24.849h7.143L150.382 275h-3.794l-7.759-25.464zm35.718 6.426c0 3.805 1.259 6.995 3.777 9.57 2.518 2.575 5.6 3.863 9.245 3.863 3.327 0 6.26-1.294 8.802-3.88 2.54-2.586 3.81-5.611 3.81-9.075 0-3.691-1.258-6.853-3.776-9.484-2.518-2.632-5.509-3.948-8.972-3.948-3.555 0-6.591 1.253-9.11 3.76-2.517 2.506-3.776 5.57-3.776 9.194zM199.84 275v-4.614c-1.732 1.8-3.663 3.161-5.794 4.084-2.13.923-4.403 1.384-6.818 1.384-5.652 0-10.345-1.885-14.082-5.656s-5.606-8.494-5.606-14.168c0-2.643.467-5.15 1.401-7.52a18.953 18.953 0 0 1 4-6.254c1.89-1.983 3.959-3.447 6.203-4.392 2.245-.946 4.802-1.419 7.673-1.419 2.575 0 4.945.456 7.11 1.368 2.164.911 4.135 2.29 5.913 4.135v-4.546h6.836V275h-6.836zm23.174 0h-6.768v-37.598h6.358v4.341c1.116-1.663 2.398-2.9 3.845-3.708 1.447-.81 3.127-1.225 5.041-1.248v7.075c-3.03.228-5.2 1.123-6.511 2.683-1.31 1.561-1.965 4.073-1.965 7.537V275zm44.297-22.388c-.844-3.099-2.302-5.497-4.375-7.195-2.074-1.697-4.558-2.546-7.452-2.546-2.962 0-5.531.872-7.707 2.615-2.176 1.743-3.674 4.118-4.495 7.126h24.029zm-24.234 6.084c.57 3.145 1.988 5.691 4.256 7.64 2.267 1.948 4.961 2.922 8.083 2.922 2.233 0 4.267-.536 6.101-1.607 1.834-1.07 3.298-2.586 4.392-4.546h7.622c-1.732 4.17-4.153 7.36-7.263 9.57-3.11 2.211-6.728 3.316-10.852 3.316-2.78 0-5.32-.49-7.622-1.47-2.301-.98-4.386-2.449-6.255-4.409-1.755-1.845-3.127-3.993-4.119-6.443-.99-2.45-1.486-4.95-1.486-7.502 0-2.643.45-5.116 1.35-7.417.9-2.301 2.227-4.398 3.982-6.29 1.868-2.05 3.976-3.594 6.323-4.63 2.347-1.037 4.91-1.556 7.69-1.556 3.304 0 6.375.77 9.212 2.308 2.837 1.538 5.178 3.685 7.024 6.442a19.236 19.236 0 0 1 2.426 5.623c.524 2.04.787 4.37.787 6.99v1.06h-31.65zm65.933-2.734c0 3.805 1.259 6.995 3.777 9.57 2.518 2.575 5.6 3.863 9.245 3.863 3.327 0 6.26-1.294 8.801-3.88 2.541-2.586 3.812-5.611 3.812-9.075 0-3.691-1.26-6.853-3.777-9.484-2.518-2.632-5.509-3.948-8.972-3.948-3.555 0-6.591 1.253-9.11 3.76-2.517 2.506-3.776 5.57-3.776 9.194zM334.303 275v-4.614c-1.732 1.8-3.663 3.161-5.794 4.084-2.13.923-4.403 1.384-6.819 1.384-5.65 0-10.345-1.885-14.082-5.656s-5.605-8.494-5.605-14.168c0-2.643.467-5.15 1.401-7.52a18.953 18.953 0 0 1 4-6.254c1.89-1.983 3.958-3.447 6.203-4.392 2.244-.946 4.802-1.419 7.673-1.419 2.552 0 4.916.456 7.093 1.368 2.176.911 4.175 2.29 5.998 4.135v-16.714h6.768V275h-6.836zm45.595-22.388c-.843-3.099-2.301-5.497-4.375-7.195-2.073-1.697-4.557-2.546-7.45-2.546-2.963 0-5.532.872-7.708 2.615-2.176 1.743-3.675 4.118-4.495 7.126h24.028zm-24.233 6.084c.57 3.145 1.988 5.691 4.255 7.64 2.268 1.948 4.962 2.922 8.084 2.922 2.233 0 4.267-.536 6.101-1.607 1.834-1.07 3.298-2.586 4.392-4.546h7.622c-1.732 4.17-4.153 7.36-7.263 9.57-3.11 2.211-6.728 3.316-10.852 3.316-2.78 0-5.32-.49-7.622-1.47-2.302-.98-4.387-2.449-6.255-4.409-1.755-1.845-3.127-3.993-4.119-6.443-.99-2.45-1.487-4.95-1.487-7.502 0-2.643.45-5.116 1.35-7.417.9-2.301 2.228-4.398 3.983-6.29 1.868-2.05 3.976-3.594 6.323-4.63 2.347-1.037 4.91-1.556 7.69-1.556 3.304 0 6.375.77 9.212 2.308 2.837 1.538 5.178 3.685 7.024 6.442a19.236 19.236 0 0 1 2.426 5.623c.524 2.04.786 4.37.786 6.99v1.06h-31.65zM410.353 275h-5.093l-14.287-37.598h7.28l9.878 27.447 10.151-27.447h7.144L410.353 275zm50.039-22.388c-.844-3.099-2.302-5.497-4.375-7.195-2.074-1.697-4.558-2.546-7.452-2.546-2.962 0-5.531.872-7.707 2.615-2.176 1.743-3.674 4.118-4.495 7.126h24.029zm-24.234 6.084c.57 3.145 1.988 5.691 4.256 7.64 2.267 1.948 4.961 2.922 8.083 2.922 2.233 0 4.267-.536 6.101-1.607 1.834-1.07 3.298-2.586 4.392-4.546h7.622c-1.731 4.17-4.153 7.36-7.263 9.57-3.11 2.211-6.728 3.316-10.852 3.316-2.78 0-5.32-.49-7.622-1.47-2.301-.98-4.386-2.449-6.255-4.409-1.754-1.845-3.127-3.993-4.119-6.443-.99-2.45-1.486-4.95-1.486-7.502 0-2.643.45-5.116 1.35-7.417.9-2.301 2.227-4.398 3.982-6.29 1.868-2.05 3.976-3.594 6.323-4.63 2.347-1.037 4.91-1.556 7.69-1.556 3.304 0 6.375.77 9.212 2.308 2.837 1.538 5.178 3.685 7.024 6.442a19.236 19.236 0 0 1 2.426 5.623c.525 2.04.787 4.37.787 6.99v1.06h-31.65zM475.328 275v-49.766h6.7V275h-6.7zm21.226-18.833c0 3.76 1.19 6.893 3.571 9.4 2.382 2.506 5.35 3.76 8.904 3.76 3.487 0 6.409-1.26 8.767-3.778 2.359-2.518 3.538-5.668 3.538-9.45 0-3.806-1.18-6.95-3.538-9.434-2.358-2.484-5.303-3.726-8.835-3.726-3.51 0-6.454 1.26-8.836 3.777-2.38 2.518-3.571 5.668-3.571 9.451zm-7.007.068c0-2.666.45-5.155 1.35-7.468a18.97 18.97 0 0 1 3.982-6.238c1.891-2.028 4.022-3.589 6.392-4.682 2.37-1.094 4.83-1.64 7.382-1.64 2.735 0 5.27.489 7.605 1.469 2.336.98 4.45 2.427 6.34 4.34 1.846 1.892 3.265 4.022 4.256 6.392a18.866 18.866 0 0 1 1.487 7.349c0 2.575-.462 5.081-1.384 7.52-.923 2.438-2.216 4.568-3.88 6.391-1.914 2.096-4.062 3.686-6.443 4.768-2.38 1.082-4.916 1.624-7.605 1.624-2.757 0-5.298-.496-7.622-1.487-2.324-.991-4.409-2.455-6.255-4.392-1.754-1.846-3.127-3.994-4.118-6.443-.992-2.45-1.487-4.95-1.487-7.503zm52.602-.273c0 3.714 1.248 6.881 3.743 9.502 2.495 2.62 5.475 3.93 8.938 3.93 3.532 0 6.563-1.258 9.092-3.776 2.53-2.518 3.794-5.577 3.794-9.178 0-3.805-1.253-6.995-3.76-9.57-2.506-2.575-5.571-3.862-9.194-3.862-3.327 0-6.26 1.293-8.802 3.88-2.54 2.585-3.81 5.61-3.81 9.074zm.205 14.492v16.714h-6.767v-49.766h6.836v4.615c1.732-1.778 3.663-3.128 5.793-4.05 2.13-.924 4.404-1.385 6.82-1.385 5.673 0 10.378 1.88 14.115 5.64s5.606 8.476 5.606 14.15c0 2.62-.467 5.116-1.402 7.485a19.444 19.444 0 0 1-4.033 6.324c-1.891 1.982-3.959 3.446-6.203 4.392-2.245.945-4.803 1.418-7.674 1.418-2.552 0-4.916-.461-7.092-1.384-2.176-.923-4.176-2.307-5.999-4.153zm63.335-14.424c0-4.58-.649-7.907-1.948-9.98-1.299-2.074-3.36-3.11-6.186-3.11-2.917 0-5.07 1.042-6.46 3.127-1.39 2.085-2.085 5.315-2.085 9.69V275h-6.426v-37.598h6.016v4.41c1.253-1.687 2.671-2.946 4.255-3.777 1.584-.832 3.39-1.248 5.417-1.248 2.735 0 5.013.524 6.836 1.572 1.823 1.049 3.316 2.69 4.478 4.922 1.162-2.187 2.7-3.816 4.614-4.887 1.914-1.071 4.25-1.607 7.007-1.607 4.238 0 7.633 1.384 10.186 4.153 2.552 2.769 3.828 6.466 3.828 11.091V275h-6.802v-21.91c0-3.212-.7-5.707-2.102-7.485-1.401-1.777-3.355-2.666-5.862-2.666-2.917 0-5.013.946-6.289 2.837-1.276 1.892-1.914 5.082-1.914 9.57V275h-6.563v-18.97zm68.497-3.418c-.844-3.099-2.302-5.497-4.375-7.195-2.074-1.697-4.558-2.546-7.452-2.546-2.962 0-5.531.872-7.707 2.615-2.176 1.743-3.674 4.118-4.495 7.126h24.029zm-24.234 6.084c.57 3.145 1.988 5.691 4.256 7.64 2.267 1.948 4.961 2.922 8.083 2.922 2.233 0 4.267-.536 6.101-1.607 1.834-1.07 3.298-2.586 4.392-4.546h7.622c-1.732 4.17-4.153 7.36-7.263 9.57-3.11 2.211-6.728 3.316-10.852 3.316-2.78 0-5.32-.49-7.622-1.47-2.301-.98-4.386-2.449-6.255-4.409-1.755-1.845-3.127-3.993-4.119-6.443-.99-2.45-1.486-4.95-1.486-7.502 0-2.643.45-5.116 1.35-7.417.9-2.301 2.227-4.398 3.982-6.29 1.868-2.05 3.976-3.594 6.323-4.63 2.347-1.037 4.91-1.556 7.69-1.556 3.304 0 6.375.77 9.212 2.308 2.837 1.538 5.178 3.685 7.024 6.442a19.236 19.236 0 0 1 2.426 5.623c.524 2.04.787 4.37.787 6.99v1.06h-31.65zM695.89 275h-6.768v-37.598h6.494v4.273c1.413-1.686 2.968-2.923 4.666-3.709 1.697-.786 3.64-1.179 5.827-1.179 4.922 0 8.7 1.447 11.33 4.34 2.633 2.895 3.949 7.042 3.949 12.442V275h-6.802v-19.96c0-3.989-.74-6.945-2.222-8.87-1.48-1.926-3.77-2.889-6.87-2.889-3.372 0-5.816 1.134-7.331 3.401-1.516 2.267-2.273 6.01-2.273 11.228V275zm37.358 0v-31.445h-5.298v-6.153h5.298v-12.168h6.733v12.168h5.332v6.153h-5.332V275h-6.733z" id="software-development" fill="#545553"/></g></g></svg>