<?xml version="1.0" encoding="utf-8"?>
<!-- Generator: Adobe Illustrator 22.1.0, SVG Export Plug-In . SVG Version: 6.00 Build 0)  -->
<svg version="1.1" id="Laag_1" xmlns="http://www.w3.org/2000/svg" xmlns:xlink="http://www.w3.org/1999/xlink" x="0px" y="0px"
	 viewBox="0 0 447.3 177.5" style="enable-background:new 0 0 447.3 177.5;" xml:space="preserve">
<style type="text/css">
	.st0{fill:#922180;}
</style>
<g>
	<g>
		<g>
			<path class="st0" d="M147.8,177.5h-1.5c-3.4,0-6.2-2.8-6.2-6.2c0-3.4,2.8-6.2,6.2-6.2h1.5c4.3,0,7.8-3.5,7.8-7.8V29
				c0-4.3-3.5-7.8-7.8-7.8H20.2c-4.3,0-7.8,3.5-7.8,7.8v128.3c0,3.8,2.7,7,6.3,7.7l0,0c0.4,0.1,0.8,0.1,1.2,0.1h1.7
				c3.4,0,6.2,2.8,6.2,6.2c0,3.4-2.8,6.2-6.2,6.2h-1.7c-1.2,0-2.5-0.1-3.7-0.3l0-0.1C6.8,175.2,0,166.9,0,157.3V29
				C0,17.8,9,8.8,20.2,8.8h127.6c11.1,0,20.2,9.1,20.2,20.2v128.3C168,168.4,158.9,177.5,147.8,177.5z"/>
		</g>
		<g>
			<g>
				<g>
					<path class="st0" d="M36.1,169.3v-7.9c0-0.5,0.4-0.9,0.9-0.9h14.9c0.5,0,0.9,0.4,0.9,0.9v14.9c0,0.5-0.4,0.9-0.9,0.9H37
						c-0.5,0-0.9-0.4-0.9-0.9V169.3"/>
				</g>
				<g>
					<path class="st0" d="M72.5,176.3c0,0.5-0.4,0.9-0.9,0.9H56.7c-0.5,0-0.9-0.4-0.9-0.9v-14.9c0-0.5,0.4-0.9,0.9-0.9h14.9
						c0.5,0,0.9,0.4,0.9,0.9V176.3z"/>
				</g>
				<g>
					<path class="st0" d="M92.2,176.3c0,0.5-0.4,0.9-0.9,0.9H76.5c-0.5,0-0.9-0.4-0.9-0.9v-14.9c0-0.5,0.4-0.9,0.9-0.9h14.9
						c0.5,0,0.9,0.4,0.9,0.9V176.3z"/>
				</g>
				<g>
					<path class="st0" d="M112,176.3c0,0.5-0.4,0.9-0.9,0.9H96.2c-0.5,0-0.9-0.4-0.9-0.9v-14.9c0-0.5,0.4-0.9,0.9-0.9h14.9
						c0.5,0,0.9,0.4,0.9,0.9V176.3z"/>
				</g>
				<g>
					<path class="st0" d="M131.8,169.4v6.8c0,0.5-0.4,0.9-0.9,0.9h-14.9c-0.5,0-0.9-0.4-0.9-0.9v-14.9c0-0.5,0.4-0.9,0.9-0.9H131
						c0.5,0,0.9,0.4,0.9,0.9V169.4"/>
				</g>
				<g>
					<path class="st0" d="M36.1,142.6v-7.9c0-0.5,0.4-0.9,0.9-0.9h14.9c0.5,0,0.9,0.4,0.9,0.9v14.9c0,0.5-0.4,0.9-0.9,0.9H37
						c-0.5,0-0.9-0.4-0.9-0.9V142.6"/>
				</g>
				<g>
					<path class="st0" d="M113.3,110.2v-7.9c0-0.5,0.4-0.9,0.9-0.9h14.9c0.5,0,0.9,0.4,0.9,0.9v14.9c0,0.5-0.4,0.9-0.9,0.9h-14.9
						c-0.5,0-0.9-0.4-0.9-0.9V110.2"/>
				</g>
				<g>
					<path class="st0" d="M72.5,141.7c0,0.5-0.4,0.9-0.9,0.9H56.7c-0.5,0-0.9-0.4-0.9-0.9v-14.9c0-0.5,0.4-0.9,0.9-0.9h14.9
						c0.5,0,0.9,0.4,0.9,0.9V141.7z"/>
				</g>
				<g>
					<path class="st0" d="M92.2,149.6c0,0.5-0.4,0.9-0.9,0.9H76.5c-0.5,0-0.9-0.4-0.9-0.9v-14.9c0-0.5,0.4-0.9,0.9-0.9h14.9
						c0.5,0,0.9,0.4,0.9,0.9V149.6z"/>
				</g>
				<g>
					<path class="st0" d="M97.8,118.6c0,0.5-0.4,0.9-0.9,0.9H82c-0.5,0-0.9-0.4-0.9-0.9v-14.9c0-0.5,0.4-0.9,0.9-0.9H97
						c0.5,0,0.9,0.4,0.9,0.9V118.6z"/>
				</g>
				<g>
					<path class="st0" d="M112,141.2c0,0.5-0.4,0.9-0.9,0.9H96.2c-0.5,0-0.9-0.4-0.9-0.9v-14.9c0-0.5,0.4-0.9,0.9-0.9h14.9
						c0.5,0,0.9,0.4,0.9,0.9V141.2z"/>
				</g>
				<g>
					<path class="st0" d="M131.8,142.7v6.8c0,0.5-0.4,0.9-0.9,0.9h-14.9c-0.5,0-0.9-0.4-0.9-0.9v-14.9c0-0.5,0.4-0.9,0.9-0.9H131
						c0.5,0,0.9,0.4,0.9,0.9V142.7"/>
				</g>
				<g>
					<path class="st0" d="M62.9,82.6c0,0.5-0.4,0.9-0.9,0.9H47.1c-0.5,0-0.9-0.4-0.9-0.9V67.6c0-0.5,0.4-0.9,0.9-0.9h14.9
						c0.5,0,0.9,0.4,0.9,0.9V82.6z"/>
				</g>
				<g>
					<path class="st0" d="M91.9,93.3c0,0.5-0.4,0.9-0.9,0.9H76.2c-0.5,0-0.9-0.4-0.9-0.9V78.4c0-0.5,0.4-0.9,0.9-0.9h14.9
						c0.5,0,0.9,0.4,0.9,0.9V93.3z"/>
				</g>
				<g>
					<path class="st0" d="M111.7,85c0,0.5-0.4,0.9-0.9,0.9H95.9c-0.5,0-0.9-0.4-0.9-0.9V70.1c0-0.5,0.4-0.9,0.9-0.9h14.9
						c0.5,0,0.9,0.4,0.9,0.9V85z"/>
				</g>
				<g>
					<path class="st0" d="M128.6,61.5v6.8c0,0.5-0.4,0.9-0.9,0.9h-14.9c-0.5,0-0.9-0.4-0.9-0.9V53.4c0-0.5,0.4-0.9,0.9-0.9h14.9
						c0.5,0,0.9,0.4,0.9,0.9V61.5"/>
				</g>
				<g>
					<path class="st0" d="M61.5,111.2c0,0.5-0.4,0.9-0.9,0.9H45.7c-0.5,0-0.9-0.4-0.9-0.9V96.3c0-0.5,0.4-0.9,0.9-0.9h14.9
						c0.5,0,0.9,0.4,0.9,0.9V111.2z"/>
				</g>
			</g>
		</g>
	</g>
	<g>
		<path class="st0" d="M308.4,50.1c7,4,12.6,9.7,16.7,17.1c4.1,7.4,6.2,15.9,6.2,25.7c0,9.8-2.1,18.3-6.2,25.7
			c-4.1,7.4-9.7,13.1-16.7,17.1c-7,4-14.8,6-23.4,6c-11,0-19.8-3.3-26.3-9.9v42.2h-33.1V45.6h31.5V55c6.2-7.3,15.4-11,27.9-11
			C293.6,44.1,301.4,46.1,308.4,50.1z M292.3,109.3c3.7-4,5.6-9.5,5.6-16.5c0-7-1.9-12.5-5.6-16.5c-3.7-4-8.5-6-14.3-6
			c-5.8,0-10.6,2-14.3,6c-3.7,4-5.6,9.5-5.6,16.5c0,7,1.9,12.5,5.6,16.5c3.7,4,8.5,6,14.3,6C283.8,115.3,288.6,113.3,292.3,109.3z"
			/>
		<path class="st0" d="M406.9,140c-3.5,0-20.6,0.1-25.1,0.1c-12.3,0-21.8-3-28.4-9c-6.6-6-9.9-14.9-9.9-26.7V73.2h-11.3
			c0,0-2.8-20.8-28.5-29.1c-11.2,0,39.8,0.2,39.8,0.2V11.4l33.1,0V44l30.4,0.2l-0.1,28.9h-30.3v31c0,3.3,0.9,5.9,2.7,7.8
			c1.8,1.9,4.2,2.8,7.2,2.8c3.8,0,16.1,0.1,20.4,0L406.9,140z"/>
		<path class="st0" d="M412.5,30.1c-3.7-3.4-5.6-7.5-5.6-12.5c0-5,1.9-9.2,5.6-12.5c3.7-3.4,8.6-5.1,14.6-5.1c6,0,10.9,1.6,14.6,4.8
			c3.7,3.2,5.6,7.3,5.6,12.3c0,5.2-1.9,9.6-5.6,13c-3.7,3.4-8.6,5.1-14.6,5.1C421.1,35.2,416.2,33.5,412.5,30.1z M410.5,44l33.1-0.2
			V140h-33.1V44z"/>
	</g>
</g>
</svg>
